<svg width="25" height="25" viewBox="0 0 25 25" fill="none" xmlns="http://www.w3.org/2000/svg">
<path fill-rule="evenodd" clip-rule="evenodd" d="M11.6842 1.72033C12.017 1.49947 12.4498 1.49947 12.7826 1.72033L22.2826 8.02488C22.5599 8.20891 22.7266 8.5196 22.7266 8.85241V15.2433C22.7266 15.5762 22.5599 15.8868 22.2826 16.0709L12.7826 22.3754C12.4498 22.5963 12.017 22.5963 11.6842 22.3754L2.18423 16.0709C1.90693 15.8868 1.74023 15.5762 1.74023 15.2433V8.85241C1.74023 8.5196 1.90693 8.20891 2.18423 8.02488L11.6842 1.72033ZM3.72659 10.7035V13.3782L5.72804 12.0318L3.72659 10.7035ZM7.51948 13.2206L4.52109 15.2377L11.2402 19.6968V15.6899L7.51948 13.2206ZM13.2266 15.6899V19.6968L19.9457 15.2377L16.9473 13.2206L13.2266 15.6899ZM18.7388 12.0318L20.7402 13.3782V10.7035L18.7388 12.0318ZM19.9373 8.85241L16.9548 10.8317L13.2266 8.32355V4.39897L19.9373 8.85241ZM11.2402 4.39897V8.32355L7.51197 10.8317L4.52956 8.85241L11.2402 4.39897ZM12.2334 10.0494L9.30341 12.0205L12.2334 13.965L15.1634 12.0205L12.2334 10.0494Z" fill="#F2F9FD" fill-opacity="0.7"/>
</svg>
