<svg width="77" height="62" viewBox="0 0 77 62" fill="none" xmlns="http://www.w3.org/2000/svg">
<path d="M26.8165 21.3716C26.9096 21.3971 27.0039 21.5628 27.0039 21.6859C27.0039 22.1449 26.4651 21.9511 26.1917 22.0002C26.1455 22.0087 26.1176 22.1115 26.0668 22.1259C25.9262 22.1665 25.7102 22.1658 25.567 22.2516C25.4986 22.2929 25.1706 22.6229 25.1296 22.6916C25.1134 22.7185 25.1472 22.7781 25.1296 22.8173C25.1049 22.8717 25.0145 22.8985 25.0047 22.9431C24.9819 23.0445 24.9852 23.3372 25.0047 23.4459C25.0132 23.4924 25.1153 23.5206 25.1296 23.5716C25.3268 24.2644 25.5872 24.6592 25.8794 25.3317C28.601 31.6019 31.2191 38.0272 34.1262 44.1894C34.2434 44.4382 34.367 44.8592 34.5011 45.0694C34.615 45.2475 35.094 45.569 35.1258 45.3208L35.2508 44.9437V27.0917C35.2482 27.0472 35.1291 27.0105 35.1258 26.966C35.0341 25.7213 35.0822 25.0639 34.626 23.9488C34.4913 23.6188 34.3104 23.1925 34.1262 22.9431C33.8073 22.5122 33.3661 22.4133 32.9392 22.1259L31.2523 22.0002V21.3716H38.8744V22.0002C38.8269 22.048 38.0212 21.9628 37.8123 22.0002C37.7661 22.0087 37.7381 22.1115 37.6874 22.1259C37.6067 22.1495 37.5051 22.099 37.4375 22.1259C37.3887 22.1455 37.3639 22.2274 37.3125 22.2516C37.2741 22.2693 37.2149 22.2352 37.1876 22.2516C37.1016 22.3033 36.6871 22.7237 36.6253 22.8173C36.4606 23.0668 36.3318 23.5343 36.2504 23.8231C36.1053 24.3384 35.9263 24.8439 36.0005 25.4574C35.7929 32.5827 35.7929 40.0813 36.0005 47.2066C35.9406 47.9537 36.1502 48.5921 36.3754 49.2181C36.6005 49.844 36.8817 50.2421 37.4375 50.5381L38.8744 50.6638C38.9148 50.8413 38.8555 51.2924 38.687 51.2924H31.2523V50.6638C31.6988 50.7398 32.0287 50.5401 32.4394 50.5381C32.6392 50.3882 32.9808 50.2186 33.1266 49.9724C33.1429 49.9455 33.109 49.8859 33.1266 49.8467C33.1513 49.7923 33.2418 49.7655 33.2516 49.7209C33.2776 49.6031 33.2743 49.2194 33.2516 49.0924C33.2431 49.0459 33.1409 49.0177 33.1266 48.9666C32.9867 48.4716 32.8155 48.2713 32.6268 47.8352C29.777 41.2455 26.8451 34.6315 24.0051 27.9718C23.7942 27.8474 23.6452 27.3412 23.4428 27.2803C23.3784 27.2607 23.1298 27.2358 23.1304 27.3432C23.2013 27.4761 23.0055 27.556 23.0055 27.5946V46.4523C23.0055 46.4942 23.1246 46.5315 23.1304 46.578C23.2482 47.5111 23.2326 47.955 23.6302 48.8409C23.7382 49.0812 23.8697 49.4139 24.0051 49.5952C24.1001 49.7223 24.4463 50.0798 24.5674 50.161C24.5947 50.1793 24.6604 50.1413 24.6923 50.161C24.8173 50.2382 25.2351 50.5204 25.3171 50.5381C25.4759 50.5728 25.8592 50.6534 25.9418 50.6638C26.2327 50.6998 26.9128 50.5479 27.0039 50.8524C27.0488 51.0037 26.9206 51.2924 26.8165 51.2924H19.3818V50.6638C19.6415 50.6383 19.9441 50.7005 20.194 50.6638C20.2402 50.6573 20.2702 50.5492 20.319 50.5381C20.5201 50.4936 20.729 50.5407 20.9437 50.4124C21.0388 50.3554 21.5626 49.8244 21.631 49.7209C21.6525 49.6882 21.8588 49.2777 21.8809 49.2181C22.0638 48.7211 22.0455 48.0598 22.2557 47.5837C22.2935 40.6882 22.6807 33.3475 22.2557 26.4632C22.1959 25.4954 22.2447 24.7254 22.0058 23.8231C21.9551 23.6299 21.8327 23.3313 21.7559 23.0688C21.7384 23.0092 21.5639 22.9031 21.506 22.8173C21.4859 22.7872 21.5249 22.7178 21.506 22.6916C21.3192 22.4336 21.0505 22.283 20.8188 22.1259L19.3818 22.0002V21.3716H26.8165Z" fill="white"/>
<path d="M13.7592 21.3716V22.0002H11.4476C11.4072 22.0002 11.3753 22.1089 11.3226 22.1259C11.2484 22.1495 11.1508 22.1036 11.0727 22.1259C10.8996 22.1757 10.6178 22.6818 10.5104 22.8173C10.3933 23.2835 10.3412 23.7943 10.3855 24.3259C10.4557 25.1673 10.7258 26.1436 10.8853 26.966C12.0216 32.8224 13.2652 38.6342 14.5089 44.4408C14.8714 46.1334 15.0796 47.7219 15.7584 49.3438C15.9159 49.7209 16.076 50.1911 16.4457 50.4124C16.473 50.4288 16.5322 50.3947 16.5706 50.4124C16.622 50.4366 16.6467 50.5185 16.6956 50.5381C16.7444 50.5578 17.0496 50.6599 17.0704 50.6638C17.3112 50.707 17.6275 50.6337 17.8826 50.6638C17.923 50.8413 17.8637 51.2924 17.6952 51.2924H11.0102V50.6638C11.581 50.7011 12.0268 50.6913 12.3847 50.2238C12.3483 49.8565 12.5812 49.6116 12.5097 49.2181C12.3144 48.1423 12.2096 47.0331 12.0098 45.9494C11.8927 45.3143 11.6877 44.5632 11.51 43.9379C11.4697 43.7965 11.4703 43.5791 11.3851 43.4351C11.3226 43.3296 11.1534 43.2314 11.0727 43.1208H5.5748L5.01251 43.6865C4.95003 43.9942 4.94808 44.3995 4.88756 44.6922C4.70729 45.5631 4.45673 46.5394 4.38775 47.458C4.36172 47.8044 4.34675 48.3819 4.38775 48.7152C4.39361 48.761 4.50424 48.7925 4.5127 48.8409C4.53938 48.9948 4.48081 49.1984 4.5127 49.3438C4.52311 49.3896 4.61683 49.4158 4.63765 49.4695C4.76911 49.8021 5.0047 50.2205 5.32489 50.4124C5.35157 50.4288 5.4108 50.3947 5.44984 50.4124C5.50386 50.4373 5.53054 50.5283 5.5748 50.5381C5.71862 50.5702 5.92167 50.5106 6.07461 50.5381C6.12276 50.5466 6.154 50.6579 6.19956 50.6638C6.53211 50.7051 6.91999 50.6344 7.26165 50.6638C7.27076 50.9336 7.31242 51.1326 7.07422 51.2924H0.201843C-0.0363478 51.1326 0.00530299 50.9336 0.0144141 50.6638C0.0573665 50.6206 0.869557 50.6946 1.07651 50.6638C1.1136 50.6586 1.34529 50.4333 1.57632 50.5381C1.8516 50.3495 2.31041 50.0287 2.51346 49.7209C3.28791 48.5469 3.59964 46.7063 3.88794 45.4465C5.06783 40.2862 6.07851 35.0722 7.1367 29.8575C7.48162 28.1564 8.04651 26.2851 7.76146 24.3259C7.75495 24.2795 7.64627 24.2493 7.63651 24.2002C7.61308 24.0837 7.66515 23.9252 7.63651 23.8231C7.62284 23.774 7.52848 23.7484 7.51156 23.6974C7.48618 23.6208 7.53824 23.5186 7.51156 23.4459C7.49464 23.4001 7.29354 22.9922 7.26165 22.9431C7.18421 22.8252 6.69156 22.3295 6.57442 22.2516C6.54773 22.2339 6.48265 22.2713 6.44946 22.2516C6.37007 22.2045 6.09738 22.0002 6.07461 22.0002H4.2628V21.3716H13.7592ZM5.8247 42.4922H10.8228C10.8449 42.4922 11.1293 42.1995 11.1352 42.1779C11.1586 42.0914 11.1541 41.7778 11.1352 41.675C11.1267 41.6272 11.0193 41.5971 11.0102 41.5493C10.2358 37.3607 9.30905 33.2827 8.51118 29.1032C8.50207 29.0548 8.39338 29.0247 8.38623 28.9775C8.36019 28.8105 8.46432 28.5133 8.32375 28.4118C8.02634 28.5997 8.18122 28.8564 8.13632 29.1032C8.07449 29.447 7.96516 29.8569 7.88642 30.2347C7.0944 34.039 6.21062 37.8177 5.51232 41.675C5.50581 41.7117 5.31513 41.8027 5.38737 42.0522L5.51232 42.3665C5.71276 42.297 5.77654 42.4837 5.8247 42.4922Z" fill="white"/>
<path d="M66.6773 21.3721C66.7703 21.3976 66.8647 21.5633 66.8647 21.6864C66.8647 22.1945 66.1247 21.928 65.8026 22.0007C65.7583 22.0105 65.7316 22.1015 65.6776 22.1264C65.6386 22.1441 65.5794 22.11 65.5527 22.1264C65.4941 22.1617 65.2754 22.3817 65.2403 22.4407C65.224 22.4675 65.2579 22.5271 65.2403 22.5664C65.2156 22.6207 65.1251 22.6476 65.1153 22.6921C65.0717 22.8866 65.0874 23.5964 65.1153 23.8236C65.1303 23.9467 65.3275 24.426 65.3653 24.5779C65.9152 26.8054 66.8393 29.179 67.7393 31.3666L67.9892 32.3095L68.3641 31.8695C69.0435 29.4913 70.0588 27.2631 70.4883 24.8293C70.4968 24.7809 70.6074 24.7494 70.6133 24.7036C70.6517 24.3919 70.6718 23.2074 70.6133 22.9435C70.6035 22.899 70.513 22.8722 70.4883 22.8178C70.4707 22.7785 70.5046 22.719 70.4883 22.6921C70.4473 22.6234 70.1193 22.2933 70.051 22.2521C70.0236 22.2357 69.9644 22.2698 69.926 22.2521C69.8746 22.2279 69.8499 22.146 69.8011 22.1264C69.7334 22.0995 69.6319 22.15 69.5512 22.1264C69.5004 22.112 69.4724 22.0092 69.4262 22.0007C69.05 21.9332 68.1142 22.2082 68.1142 21.6864C68.1142 21.5796 68.2222 21.3721 68.3016 21.3721H75.2365V22.0007C75.1864 22.0511 74.274 21.9607 74.0494 22.0007C74.0032 22.0092 73.9753 22.112 73.9245 22.1264C73.8438 22.15 73.7423 22.0995 73.6746 22.1264C73.4156 22.2305 72.6932 22.92 72.4875 23.195C71.6142 24.3644 70.9992 26.3006 70.4883 27.7208C69.8525 29.4887 69.1529 31.2462 68.614 33.1267C68.5997 33.1771 68.5001 33.2039 68.4891 33.2524C68.4181 33.5601 68.5834 33.6485 68.614 33.7553C68.6602 33.917 68.6863 34.2359 68.739 34.3839C69.3481 36.085 70.01 37.6355 70.6133 39.2869C71.7033 42.27 72.7017 45.5073 74.1119 48.4643C74.4367 49.1452 74.9918 50.2649 75.6738 50.5386C75.9218 50.6381 76.2647 50.6414 76.5485 50.6643C76.6995 50.6768 76.9325 50.6663 76.9858 50.8529C77.0294 51.0048 76.9038 51.2929 76.7984 51.2929H68.1767C68.0081 51.2929 67.9489 50.8418 67.9892 50.6643C68.3309 50.6348 68.7188 50.7056 69.0513 50.6643C69.0969 50.6584 69.1281 50.5471 69.1763 50.5386C69.3292 50.5111 69.5323 50.5707 69.6761 50.5386C69.7204 50.5288 69.747 50.4378 69.8011 50.4129C69.8401 50.3952 69.8993 50.4292 69.926 50.4129C69.9924 50.3729 70.4772 49.8858 70.4883 49.8472C70.5104 49.7686 70.4649 49.6704 70.4883 49.5957C70.5046 49.5433 70.6048 49.5158 70.6133 49.47C70.6582 49.2179 70.6464 48.4839 70.6133 48.2128C70.5306 47.5371 70.1902 46.6093 69.9885 45.9499C69.2446 43.5154 68.2743 41.1504 67.3645 38.784L67.1146 37.8411L66.7397 38.2811C65.869 41.4791 64.322 44.5467 63.7409 47.8357C63.7324 47.8841 63.6218 47.9155 63.6159 47.9614C63.5749 48.2934 63.5613 49.2873 63.6159 49.5957C63.6244 49.6415 63.7246 49.669 63.7409 49.7214C63.7643 49.7961 63.7187 49.8943 63.7409 49.9729C63.7903 50.147 64.2934 50.4306 64.4281 50.5386C64.6591 50.4338 64.8908 50.6591 64.9279 50.6643C65.2904 50.7174 66.115 50.477 66.115 50.9786C66.115 51.0853 66.0069 51.2929 65.9275 51.2929H58.9927V50.6643C59.2907 50.6348 59.6422 50.7069 59.9298 50.6643C59.976 50.6578 60.006 50.5491 60.0548 50.5386C60.2793 50.4888 60.3275 50.496 60.5546 50.4129C60.9919 50.2531 61.3193 49.9683 61.6167 49.5957C62.1184 48.9671 62.5102 48.0098 62.8662 47.2071C63.9582 44.7458 64.7177 42.1188 65.6152 39.5383C65.8963 38.7296 66.2523 37.8503 66.4898 37.0239C66.5204 36.9172 66.6864 36.8282 66.6148 36.5211C66.6037 36.4726 66.5041 36.4458 66.4898 36.3953C66.4065 36.1053 66.348 35.696 66.2399 35.3896C65.4264 33.0769 64.4665 30.8605 63.6159 28.6008C62.9905 26.939 62.2505 24.2976 61.2418 22.9435C61.1598 22.8335 60.4849 22.1421 60.4296 22.1264C60.3515 22.1041 60.2539 22.15 60.1797 22.1264C60.1277 22.11 60.1003 22.0092 60.0548 22.0007C59.8621 21.966 59.1619 22.0452 59.1176 22.0007V21.3721H66.6773Z" fill="white"/>
<path d="M53.9948 21.3719V22.0005H51.6831C51.6428 22.0005 51.6109 22.1092 51.5582 22.1263C51.484 22.1498 51.3864 22.104 51.3083 22.1263C51.2784 22.1348 50.9054 22.508 50.871 22.5663C50.8547 22.5931 50.8885 22.6527 50.871 22.692C50.8462 22.7463 50.7558 22.7732 50.746 22.8177C50.7141 22.9624 50.7733 23.1667 50.746 23.3206C50.7375 23.369 50.6269 23.4005 50.6211 23.4463C50.5963 23.6434 50.5963 24.0035 50.6211 24.2006C50.7304 25.0832 50.9614 25.996 51.1209 26.8407C52.2682 32.9157 53.5626 38.9364 54.8694 44.944C55.2261 46.5849 55.4076 48.051 56.119 49.5956C56.1736 49.7148 56.3064 50.016 56.3689 50.0985C56.4535 50.2104 56.5895 50.3014 56.6812 50.4128C57.1375 50.5922 57.5624 50.7251 58.1182 50.6642V51.2928H51.2458V50.6642C51.8166 50.7015 52.2624 50.6917 52.6203 50.2242C52.5331 50.0271 52.7387 49.8837 52.7452 49.847C52.7804 49.6493 52.768 49.1824 52.7452 48.967C52.6301 47.8886 52.3222 46.748 52.1205 45.6983C52.0033 45.0894 51.9656 44.3691 51.7456 43.8126C51.6356 43.5343 51.568 43.3064 51.3083 43.1211H45.8104C45.718 43.2691 45.2767 43.5814 45.2481 43.6869C45.2117 43.8198 45.2761 44.0372 45.2481 44.1897C45.2396 44.2375 45.1329 44.267 45.1231 44.3154C44.911 45.3572 44.7359 46.5299 44.6233 47.5841C44.5498 48.271 44.7867 48.9624 44.8732 49.5956C45.0333 49.8241 45.2937 50.253 45.5605 50.4128C45.5872 50.4291 45.6464 50.3951 45.6854 50.4128C45.7394 50.4376 45.7661 50.5287 45.8104 50.5385C45.9542 50.5706 46.1573 50.511 46.3102 50.5385C46.3584 50.547 46.3896 50.6583 46.4351 50.6642C46.7677 50.7054 47.1556 50.6347 47.4972 50.6642C47.5376 50.8416 47.4784 51.2928 47.3098 51.2928H40.4374C40.358 51.2928 40.25 51.0852 40.25 50.9785C40.25 50.49 40.9711 50.7146 41.3121 50.6642C41.3583 50.6576 41.3882 50.5496 41.437 50.5385C41.5503 50.5136 41.7084 50.5673 41.8119 50.5385C41.8262 50.5345 42.0377 50.4272 42.0618 50.4128C42.1757 50.3447 42.6527 49.8503 42.749 49.7213C43.3771 48.8793 43.7565 47.0819 43.9986 46.0755C45.4251 40.1504 46.5113 34.0989 47.7471 28.0978C47.9079 27.3167 48.2131 26.0569 48.122 25.2063C48.1168 25.1605 48.0016 25.1265 47.9971 25.0806C47.9678 24.7997 48.0361 24.471 47.9971 24.2006C47.9905 24.1541 47.8825 24.124 47.8721 24.0749C47.8233 23.8483 47.8291 23.7999 47.7471 23.572C47.5695 23.0777 47.2584 22.5512 46.81 22.252C46.7833 22.2343 46.7182 22.2716 46.685 22.252C46.6057 22.2048 46.333 22.0005 46.3102 22.0005H44.4984V21.3719H53.9948ZM46.0603 42.4925H51.0584C51.0805 42.4925 51.3649 42.1998 51.3708 42.1782C51.3994 42.0741 51.3896 41.6793 51.3708 41.5497C51.3636 41.5025 51.2543 41.4717 51.2458 41.4239C50.4915 37.1914 49.4177 33.0408 48.6218 28.8522C48.5912 28.6924 48.7338 28.3873 48.4969 28.4121L48.122 29.8579C47.4354 33.7139 46.5809 37.5044 45.7479 41.2982C45.7232 41.4108 45.7733 41.5641 45.7479 41.6754C45.7368 41.7225 45.5507 41.8024 45.623 42.0525L45.7479 42.3668C45.9484 42.2974 46.0121 42.484 46.0603 42.4925Z" fill="white"/>
<path d="M39.126 0H37.8765V15.4633H39.126V0Z" fill="white"/>
<path d="M37.002 3.77136H35.7524V15.4631H37.002V3.77136Z" fill="white"/>
<path d="M41.25 5.40576H40.0005V15.4632H41.25V5.40576Z" fill="white"/>
<path d="M43.374 8.0459V14.2061H76.8613C76.7682 14.4424 76.9726 14.5872 76.9862 14.6461C77.0604 14.9656 76.8112 15.1568 76.8613 15.4632H42.1245V8.0459H43.374Z" fill="white"/>
<path d="M34.8773 9.42908V15.4635H0.203048C-0.0676825 15.4635 -0.0676825 14.2064 0.203048 14.2064H33.6278V9.42908H34.8773Z" fill="white"/>
<path d="M10.9158 61H9.5399V56.5415H10.9767C11.4092 56.5415 11.7793 56.6307 12.087 56.8092C12.3947 56.9863 12.6305 57.241 12.7945 57.5734C12.9585 57.9043 13.0405 58.3005 13.0405 58.762C13.0405 59.2265 12.9578 59.6263 12.7924 59.9616C12.6269 60.2954 12.386 60.5523 12.0696 60.7322C11.7532 60.9107 11.3686 61 10.9158 61ZM10.0798 60.5211H10.8809C11.2496 60.5211 11.5551 60.4499 11.7975 60.3077C12.0398 60.1655 12.2205 59.963 12.3395 59.7003C12.4586 59.4376 12.5181 59.1249 12.5181 58.762C12.5181 58.4021 12.4593 58.0922 12.3417 57.8324C12.2242 57.5712 12.0485 57.3709 11.8149 57.2316C11.5812 57.0908 11.2902 57.0204 10.9419 57.0204H10.0798V60.5211ZM14.8044 61V56.5415H17.4952V57.0204H15.3443V58.5269H17.3559V59.0059H15.3443V60.5211H17.5301V61H14.8044ZM19.5095 56.5415L20.8331 60.2946H20.8854L22.209 56.5415H22.775L21.1379 61H20.5806L18.9435 56.5415H19.5095ZM24.3278 61V56.5415H27.0186V57.0204H24.8677V58.5269H26.8792V59.0059H24.8677V60.5211H27.0534V61H24.3278ZM28.85 61V56.5415H29.3899V60.5211H31.4624V61H28.85ZM36.7449 58.7707C36.7449 59.241 36.66 59.6473 36.4902 59.9899C36.3204 60.3324 36.0874 60.5965 35.7913 60.7823C35.4953 60.9681 35.1571 61.061 34.7769 61.061C34.3966 61.061 34.0584 60.9681 33.7624 60.7823C33.4663 60.5965 33.2334 60.3324 33.0635 59.9899C32.8937 59.6473 32.8088 59.241 32.8088 58.7707C32.8088 58.3005 32.8937 57.8941 33.0635 57.5516C33.2334 57.2091 33.4663 56.9449 33.7624 56.7592C34.0584 56.5734 34.3966 56.4805 34.7769 56.4805C35.1571 56.4805 35.4953 56.5734 35.7913 56.7592C36.0874 56.9449 36.3204 57.2091 36.4902 57.5516C36.66 57.8941 36.7449 58.3005 36.7449 58.7707ZM36.2224 58.7707C36.2224 58.3847 36.1578 58.0589 36.0286 57.7933C35.9009 57.5277 35.7275 57.3266 35.5083 57.1902C35.2906 57.0538 35.0468 56.9856 34.7769 56.9856C34.5069 56.9856 34.2624 57.0538 34.0432 57.1902C33.8255 57.3266 33.6521 57.5277 33.5229 57.7933C33.3952 58.0589 33.3313 58.3847 33.3313 58.7707C33.3313 59.1568 33.3952 59.4826 33.5229 59.7482C33.6521 60.0138 33.8255 60.2148 34.0432 60.3512C34.2624 60.4877 34.5069 60.5559 34.7769 60.5559C35.0468 60.5559 35.2906 60.4877 35.5083 60.3512C35.7275 60.2148 35.9009 60.0138 36.0286 59.7482C36.1578 59.4826 36.2224 59.1568 36.2224 58.7707ZM38.511 61V56.5415H40.0175C40.3672 56.5415 40.6531 56.6046 40.8752 56.7309C41.0987 56.8557 41.2642 57.0248 41.3716 57.2381C41.479 57.4515 41.5327 57.6895 41.5327 57.9522C41.5327 58.2149 41.479 58.4536 41.3716 58.6684C41.2656 58.8832 41.1016 59.0545 40.8796 59.1822C40.6575 59.3085 40.373 59.3716 40.0262 59.3716H38.9464V58.8926H40.0087C40.2482 58.8926 40.4405 58.8513 40.5857 58.7686C40.7308 58.6858 40.836 58.5741 40.9013 58.4333C40.9681 58.2911 41.0015 58.1307 41.0015 57.9522C41.0015 57.7737 40.9681 57.614 40.9013 57.4732C40.836 57.3325 40.7301 57.2222 40.5835 57.1423C40.4369 57.0611 40.2424 57.0204 40 57.0204H39.0509V61H38.511ZM43.2606 56.5415H43.905L45.4202 60.2424H45.4725L46.9877 56.5415H47.6321V61H47.127V57.6126H47.0835L45.6902 61H45.2025L43.8093 57.6126H43.7657V61H43.2606V56.5415ZM49.5729 61V56.5415H52.2637V57.0204H50.1128V58.5269H52.1243V59.0059H50.1128V60.5211H52.2985V61H49.5729ZM57.6305 56.5415V61H57.1081L54.6785 57.4994H54.635V61H54.0951V56.5415H54.6176L57.0558 60.0508H57.0994V56.5415H57.6305ZM59.3253 57.0204V56.5415H62.6692V57.0204H61.2672V61H60.7273V57.0204H59.3253ZM66.799 57.6561C66.7729 57.4355 66.6669 57.2642 66.4812 57.1423C66.2954 57.0204 66.0675 56.9595 65.7976 56.9595C65.6002 56.9595 65.4275 56.9914 65.2795 57.0552C65.1329 57.1191 65.0182 57.2069 64.9355 57.3187C64.8542 57.4304 64.8136 57.5574 64.8136 57.6996C64.8136 57.8187 64.8419 57.921 64.8985 58.0066C64.9565 58.0908 65.0305 58.1612 65.1205 58.2178C65.2105 58.2729 65.3049 58.3186 65.4035 58.3549C65.5022 58.3898 65.5929 58.4181 65.6757 58.4398L66.1285 58.5617C66.2446 58.5922 66.3738 58.6343 66.516 58.688C66.6597 58.7417 66.7968 58.815 66.9275 58.9079C67.0595 58.9993 67.1684 59.1169 67.254 59.2606C67.3396 59.4042 67.3824 59.5806 67.3824 59.7896C67.3824 60.0305 67.3193 60.2482 67.193 60.4427C67.0682 60.6372 66.8854 60.7917 66.6444 60.9064C66.405 61.021 66.114 61.0784 65.7715 61.0784C65.4522 61.0784 65.1757 61.0268 64.942 60.9238C64.7098 60.8208 64.5269 60.6771 64.3934 60.4928C64.2613 60.3084 64.1866 60.0944 64.1692 59.8505H64.7265C64.741 60.0189 64.7976 60.1582 64.8963 60.2685C64.9964 60.3774 65.1227 60.4586 65.2751 60.5123C65.4289 60.5646 65.5944 60.5907 65.7715 60.5907C65.9775 60.5907 66.1626 60.5573 66.3266 60.4906C66.4906 60.4224 66.6205 60.328 66.7163 60.2076C66.8121 60.0857 66.86 59.9434 66.86 59.7809C66.86 59.6328 66.8186 59.5124 66.7359 59.4195C66.6531 59.3266 66.5443 59.2511 66.4093 59.1931C66.2743 59.135 66.1285 59.0842 65.9717 59.0407L65.4231 58.8839C65.0748 58.7838 64.7991 58.6408 64.5959 58.4551C64.3927 58.2693 64.2911 58.0262 64.2911 57.7258C64.2911 57.4761 64.3586 57.2584 64.4935 57.0727C64.63 56.8854 64.8128 56.7403 65.0422 56.6373C65.2729 56.5328 65.5305 56.4805 65.815 56.4805C66.1024 56.4805 66.3578 56.532 66.5813 56.6351C66.8048 56.7367 66.9819 56.876 67.1125 57.0531C67.2446 57.2301 67.3142 57.4311 67.3215 57.6561H66.799Z" fill="white"/>
</svg>
