<svg width="12" height="11" viewBox="0 0 12 11" fill="none" xmlns="http://www.w3.org/2000/svg">
<path id="Layer 8" fill-rule="evenodd" clip-rule="evenodd" d="M1.09747 0.150149C1.09747 0.156124 1.14184 0.233538 1.19607 0.322197C1.32312 0.529807 1.41119 0.738931 1.48416 1.00637C1.5579 1.2765 1.59694 3.59582 1.52846 3.63741C1.33603 3.75428 0.323446 3.63961 0.112255 3.47706L0.00787236 3.39672V3.59131C0.00787236 4.27961 0.40582 4.62548 1.19776 4.62548H1.56054V5.13426V5.64305L0.995317 5.64247C0.379533 5.64185 0.313912 5.62914 0.0932421 5.46792L0 5.39979L0.0135927 5.64905C0.0498217 6.31216 0.3992 6.60838 1.14514 6.60841L1.56054 6.60843L1.55981 7.55425C1.55847 9.25404 1.4828 9.68943 1.12337 10.0656C1.03392 10.1592 5.4127 10.1337 6.1208 10.0364C8.32728 9.73342 9.80125 8.53007 10.235 6.67755L10.2525 6.60319L10.9254 6.6131C11.6604 6.62393 11.6619 6.62422 11.8913 6.79684L11.9934 6.87373L11.9926 6.78674C11.9847 5.97443 11.6208 5.64305 10.7367 5.64305H10.4135V5.13246V4.6219L11.0196 4.6302C11.6859 4.63936 11.7153 4.64554 11.9082 4.81756L12 4.89944L11.9864 4.66461C11.944 3.93648 11.631 3.67981 10.7438 3.64574L10.2501 3.6268L10.1949 3.44123C9.66688 1.66719 8.28416 0.569127 6.16408 0.240244C5.6611 0.16223 1.09747 0.081059 1.09747 0.150149ZM5.18015 0.647663C6.9946 0.715162 8.14578 1.72451 8.48938 3.5492L8.50535 3.634H5.80928H3.11322V2.13809C3.11322 1.31532 3.12177 0.633965 3.13223 0.623946C3.151 0.605969 4.47041 0.621258 5.18015 0.647663ZM8.61567 5.13426V5.64305H5.86444H3.11322V5.13426V4.62548H5.86444H8.61567V5.13426ZM8.49644 6.68018C8.48876 6.70528 8.45817 6.82564 8.42845 6.94762C8.2038 7.86962 7.71667 8.61829 7.07642 9.02545C6.99473 9.0774 6.93567 9.13195 6.94518 9.1467C6.95469 9.16141 6.94965 9.16587 6.93399 9.15661C6.91835 9.14735 6.77856 9.1975 6.62334 9.26802C5.97149 9.56427 4.97375 9.68857 3.61034 9.64335L3.11322 9.62686V8.13069V6.63452H5.81179C8.36904 6.63452 8.50965 6.63692 8.49644 6.68018Z" fill="white"/>
</svg>
