<svg width="146" height="22" viewBox="0 0 146 22" fill="none" xmlns="http://www.w3.org/2000/svg">
<g clip-path="url(#clip0_2002_442)">
<path d="M14.9762 12.3117H14.9397C18.3385 12.3117 21.0924 9.55618 21.0924 6.15905C21.094 2.76027 18.3385 0.00476074 14.9397 0.00476074H0.0331589L12.1876 12.3117H0L9.24967 21.5232H24.2126L14.9762 12.3117Z" fill="white"/>
<path d="M57.239 5.87036C52.993 5.87036 50.1711 8.63084 50.1711 13.4836C50.1711 17.8822 52.537 21.5214 57.4213 21.5214C62.0321 21.5214 63.8525 18.6399 64.4892 15.9706H62.2741C61.7287 18.2154 60.1205 19.6711 57.36 19.6711C54.0226 19.6711 52.416 17.2439 52.3248 14.0905H64.6351V13.1802C64.6351 8.5695 61.5463 5.87036 57.239 5.87036ZM52.3547 12.3314C52.5967 9.42002 54.5697 7.72063 57.2075 7.72063C60.0293 7.72063 62.2078 9.38852 62.42 12.3314H52.3547Z" fill="white"/>
<path d="M75.3472 7.78197C77.5622 7.78197 79.5335 8.78337 79.9878 11.8158H82.2625C81.8679 7.44707 78.1375 5.87036 75.3472 5.87036C70.4629 5.87036 67.7339 9.42002 67.7339 13.6959C67.7339 17.9717 70.4645 21.5214 75.3472 21.5214C78.1375 21.5214 81.8695 19.9447 82.2625 15.576H79.9878C79.5335 18.61 77.5605 19.6097 75.3472 19.6097C71.6765 19.6097 69.9787 16.8791 69.9787 13.6942C69.9787 10.5093 71.6781 7.77866 75.3472 7.77866V7.78197Z" fill="white"/>
<path d="M93.3918 6.17427C90.0859 6.17427 87.9621 7.87201 87.143 10.664V0.157593H84.8982V21.5219H87.143V14.9697C87.143 10.9359 89.2354 8.08423 92.6342 8.08423C95.3034 8.08423 96.5171 9.35753 96.5171 12.4828V21.5219H98.7918V12.3004C98.7918 8.35779 96.7906 6.17262 93.3918 6.17262V6.17427Z" fill="white"/>
<path d="M104.791 0C103.698 0 102.82 0.880369 102.82 1.94145C102.82 3.00254 103.7 3.91275 104.791 3.91275C105.882 3.91275 106.792 3.03404 106.792 1.94145C106.792 0.848868 105.882 0 104.791 0Z" fill="white"/>
<path d="M104.578 6.47729H101.362V8.3889H104.062V21.5231H106.125V8.11534C106.125 6.96307 105.609 6.47729 104.578 6.47729Z" fill="white"/>
<path d="M114.47 0.183716H112.225V6.47064H108.949V8.38225H112.225V18.0962C112.225 19.9928 113.765 21.5298 115.662 21.5248L117.686 21.5181V19.6065L115.936 19.6264C115.128 19.6331 114.47 18.9798 114.47 18.1724V8.38391H117.686V6.4723H114.47V0.183716Z" fill="white"/>
<path d="M124.838 0.183716H122.593V6.47064H119.317V8.38225H122.593V18.0962C122.593 19.9928 124.133 21.5298 126.03 21.5248L128.055 21.5181V19.6065L126.304 19.6264C125.496 19.6331 124.838 18.9798 124.838 18.1724V8.38391H128.055V6.4723H124.838V0.183716Z" fill="white"/>
<path d="M143.426 19.308V12.6348C143.426 8.75187 141.333 5.87036 136.903 5.87036C133.021 5.87036 130.928 8.17656 130.534 11.4825H132.808C133.112 8.75187 134.75 7.75047 136.903 7.75047C139.755 7.75047 140.999 9.1763 141.181 12.1192L135.053 12.6961C131.626 12.9995 130.23 14.6674 130.23 17.0333C130.23 18.61 130.867 21.523 135.206 21.523C138.815 21.523 140.606 19.6114 141.302 17.4892V19.4904C141.302 20.583 141.909 21.2196 143.031 21.2196H145.639V19.308H143.424H143.426ZM135.479 19.6413C133.599 19.6413 132.477 18.6399 132.477 16.7896C132.477 15.2427 133.447 14.6359 135.42 14.4535L141.183 13.8766C141.183 17.1527 138.938 19.6396 135.479 19.6396V19.6413Z" fill="white"/>
<path d="M43.4844 11.8322L44.0166 11.7559C46.3212 11.1789 47.626 9.20763 47.626 6.02272C47.626 1.29094 44.5323 0.138672 39.4971 0.138672H31.8523V21.5245H34.0972V12.9032H41.8364C43.7912 12.9032 45.3811 14.7021 45.3811 16.6551V21.5245H47.6492V16.6551C47.6492 13.825 46.0625 12.2433 43.4844 11.8338V11.8322ZM34.0988 2.07847H39.4987C43.1379 2.07847 45.3828 2.41171 45.3828 6.47699C45.3828 10.5423 43.1379 10.9054 39.4987 10.9054H34.0988V2.07847Z" fill="white"/>
</g>
<defs>
<clipPath id="clip0_2002_442">
<rect width="145.64" height="21.5234" fill="white"/>
</clipPath>
</defs>
</svg>
